# xmcd
#
# Track frame offsets: 
#        150
#        18448
#        41866
#        58681
#        70897
#        93041
#        111475
#        145788
#        170335
#        183125
#        200452
#        213737
#        229423
#        248004
#        271691
#        293754
#
# Disc length: 4337 seconds
#
# Revision: 0
# Processed by: cddbd v1.5.2PL0 Copyright (c) Steve Scherf et al.
# Submitted via: ExactAudioCopyFreeDBPlugin 1.0
#
DISCID=e810ef10
DTITLE=群星 - 试机25号
DYEAR=2010
DGENRE=Acid
TTITLE0=测试音效与弦乐五重奏
TTITLE1=那些花儿
TTITLE2=大海啊，故乡
TTITLE3=落花流水
TTITLE4=春秋战国
TTITLE5=一生爱你千百回
TTITLE6=二泉映月
TTITLE7=葬心
TTITLE8=红色娘子军交响组曲
TTITLE9=彩云深处
TTITLE10=施特劳斯管弦乐曲
TTITLE11=南泥湾
TTITLE12=国乐之人间天堂
TTITLE13=梨花香
TTITLE14=好人一生平安
TTITLE15=绛州大鼓
EXTD=
EXTT0=
EXTT1=
EXTT2=
EXTT3=
EXTT4=
EXTT5=
EXTT6=
EXTT7=
EXTT8=
EXTT9=
EXTT10=
EXTT11=
EXTT12=
EXTT13=
EXTT14=
EXTT15=
PLAYORDER=
